<?xml version="1.0" encoding="utf-8"?>
<!-- Generator: Adobe Illustrator 19.2.1, SVG Export Plug-In . SVG Version: 6.00 Build 0)  -->
<svg version="1.1" id="layer" xmlns="http://www.w3.org/2000/svg" xmlns:xlink="http://www.w3.org/1999/xlink" x="0px" y="0px"
	 viewBox="0 0 652 652" style="enable-background:new 0 0 652 652;" xml:space="preserve">
<style type="text/css">
	.st0{fill:#EA5504;}
	.st1{fill:#F08300;}
	.st2{fill:#00499F;}
	.st3{fill:#D9340A;}
	.st4{fill:#3E3A39;}
</style>
<polygon class="st0" points="86.6,333.8 130.6,358.5 132.3,339.7 120.1,326.7 102,323.7 "/>
<polygon class="st1" points="94,248.5 130.6,358.5 167.3,321.8 "/>
<polygon class="st2" points="88.1,306.8 86.6,333.8 142.9,321.8 "/>
<polygon class="st3" points="20.7,321.8 20.7,321.8 59.9,361 67.1,351.2 65.8,339.5 47.9,327.8 "/>
<polygon class="st0" points="90,252.5 20.7,321.8 65.8,339.5 "/>
<polygon class="st1" points="65.8,339.5 59.9,361 94,395.1 126.1,363 "/>
<polygon class="st4" points="216.1,342.7 209.2,342.7 209.2,287.3 216.1,283.3 "/>
<polygon class="st4" points="522.8,293.3 515.8,293.3 515.8,287.9 515.8,286 522.8,286 "/>
<g>
	<path class="st4" d="M246.7,300c-5.5,0-9.9,2.3-13,6.9v-6.1H227v41.9h6.7v-23.9c0-7.3,4.7-12.4,11.3-12.4c6.5,0,10.4,4.5,10.4,11.9
		v24.4h6.7v-25.9c0-5-1.4-9.2-4.1-12.2C255.3,301.6,251.4,300,246.7,300"/>
	<path class="st4" d="M329.6,321.8v0.2c0,8.8-6,15.4-14,15.4c-7.9,0-14-6.8-14-15.5v-0.2c0-8.8,6-15.4,13.9-15.4
		C323.4,306.2,329.6,313.1,329.6,321.8 M315.6,300c-5.8,0-11.1,2.3-15,6.5c-3.8,4.1-5.9,9.5-5.9,15.3v0.2c0,12.2,9.1,21.7,20.7,21.7
		c5.8,0,11.1-2.3,15-6.5c3.8-4.1,6-9.6,6-15.3v-0.2C336.4,309.5,327.3,300,315.6,300"/>
	<path class="st4" d="M351.3,310.1v-9.2h-6.7v41.9h6.7V326c0-11.2,5.9-18.6,15.1-18.6h0.9v-7.2l-0.4,0
		C360.4,299.9,354.7,303.5,351.3,310.1"/>
	<path class="st4" d="M419.1,300c-5.8,0-10.3,2.5-13.7,7.7c-2.6-5-7-7.7-12.6-7.7c-6.3,0-9.9,3.4-12.2,6.8v-5.9h-6.7v41.9h6.7v-23.8
		c0-7.2,4.4-12.5,10.5-12.5c6,0,9.6,4.4,9.6,11.8v24.5h6.7v-24.1c0-3.7,1.1-6.9,3-9.1c1.8-2,4.4-3.2,7.3-3.2c6.2,0,9.7,4.4,9.7,11.9
		v24.4h6.7v-25.8C434,306.5,428.3,300,419.1,300"/>
	<path class="st4" d="M507.7,307.1v-6.3h-12.6v-14.6l-6.7,3.9v10.7h-7.3v6.3h7.3v24.3c0,10.5,7.2,12,11.5,12c2.7,0,5-0.6,7.3-1.8
		l0.2-0.1v-6.2l-0.6,0.3c-1.9,1-3.5,1.4-5.5,1.4c-4.1,0-6.2-2.1-6.2-6.4v-23.5H507.7z"/>
	<path class="st4" d="M563.3,331.4c-3.6,4-7.4,6-11.7,6c-7.8,0-14-6.8-14-15.5v-0.2c0-8.7,6-15.4,13.6-15.4c5.3,0,8.7,2.9,11.6,6
		l0.3,0.4l4.4-4.9l-0.3-0.3c-3.1-3.5-7.8-7.4-16-7.4c-5.6,0-10.8,2.3-14.7,6.5c-3.8,4.1-5.9,9.6-5.9,15.3v0.2
		c0,5.7,2.1,11.2,5.9,15.2c3.9,4.2,9.1,6.5,14.7,6.5c8.3,0,13.1-4.3,16.3-8.1l0.3-0.3l-4.3-4.3L563.3,331.4z"/>
	<path class="st4" d="M470.2,322.6v4.7c0,6.1-5.5,10.7-12.7,10.7c-6.5,0-9.4-4-9.4-7.7V330c0-3.4,1.9-7.4,11-7.4H470.2z M459.5,300
		c-6.3,0-10.9,1.7-14.4,3.5l-0.3,0.2l2,5.8l0.4-0.2c3.2-1.5,6.9-3,11.7-3c7.2,0,11.3,3.3,11.3,10.9h-11.7
		c-10.9,0-17.2,4.8-17.2,13.1v0.2c0,8.7,7.6,13.2,15.1,13.2c6.9,0,11.3-3.2,13.8-6.2v5.4h6.4v-25.5c0-5.3-1.4-9.7-4.1-12.6
		C469.6,301.5,465.2,300,459.5,300"/>
	<path class="st4" d="M281.1,297c0-6,1.5-8.3,6.3-8.3c1.8,0,3.3,0.3,5.6,1l0.4,0.1v-6.2l-0.1-0.1c-2-0.8-3.9-1.1-6.6-1.1
		c-3.6,0-6.7,1.1-8.7,3.3c-2.3,2.4-3.5,6.2-3.5,10.8v4.2h-7.3v6.3h7.3v35.6h6.7v-35.6h12.6v-6.3h-12.6V297z"/>
</g>
<polygon class="st4" points="522.7,342.7 516,342.7 516,305.3 516,300.9 522.7,300.9 "/>
<g>
	<path class="st4" d="M600.9,322.6v4.7c0,6.1-5.5,10.7-12.7,10.7c-6.5,0-9.4-4-9.4-7.7V330c0-3.4,1.9-7.4,11-7.4H600.9z M590.2,300
		c-6.3,0-10.9,1.7-14.4,3.5l-0.3,0.2l2,5.8l0.4-0.2c3.2-1.5,6.9-3,11.7-3c7.2,0,11.3,3.3,11.3,10.9h-11.7
		c-10.9,0-17.2,4.8-17.2,13.1v0.2c0,8.7,7.6,13.2,15.1,13.2c6.9,0,11.3-3.2,13.8-6.2l0,5.4h6.4v-25.5c0-5.3-1.4-9.7-4.1-12.6
		C600.3,301.5,595.9,300,590.2,300"/>
	<path class="st4" d="M615.2,301.5h0.9c0.2,0,0.4,0,0.5,0c0.1,0,0.3,0.1,0.4,0.1c0.1,0.1,0.2,0.2,0.2,0.3c0,0.1,0.1,0.2,0.1,0.4
		c0,0.1,0,0.2-0.1,0.3c-0.1,0.1-0.1,0.2-0.2,0.2c-0.1,0.1-0.2,0.1-0.3,0.1c-0.1,0-0.3,0.1-0.4,0.1h-1V301.5z M616.3,304
		c0.3,0,0.6,0.1,0.7,0.2c0.1,0.1,0.2,0.4,0.2,0.7v0.3v0.2c0,0.1,0,0.2,0,0.3c0,0.1,0,0.2,0,0.3c0,0.1,0,0.2,0.1,0.2h0.9v-0.1
		c0-0.1-0.1-0.2-0.1-0.4c0-0.1,0-0.3,0-0.5v-0.4c0-0.1,0-0.3,0-0.4c0-0.1-0.1-0.3-0.1-0.4c-0.1-0.1-0.1-0.2-0.2-0.3
		c-0.1-0.1-0.2-0.2-0.4-0.2c0.3-0.1,0.5-0.3,0.6-0.5c0.1-0.2,0.2-0.4,0.2-0.7c0-0.3,0-0.5-0.1-0.7c-0.1-0.2-0.2-0.4-0.4-0.5
		c-0.2-0.1-0.4-0.2-0.6-0.3c-0.3-0.1-0.5-0.1-0.9-0.1h-1.8v5.4h0.9V304H616.3z M612.7,301.9c0.2-0.5,0.5-0.9,0.8-1.3
		c0.3-0.4,0.7-0.6,1.2-0.9c0.5-0.2,1-0.3,1.5-0.3s1,0.1,1.5,0.3c0.5,0.2,0.9,0.5,1.2,0.9c0.3,0.4,0.6,0.8,0.8,1.3
		c0.2,0.5,0.3,1,0.3,1.6c0,0.6-0.1,1.1-0.3,1.6c-0.2,0.5-0.5,0.9-0.8,1.3s-0.7,0.6-1.2,0.9c-0.5,0.2-1,0.3-1.5,0.3s-1-0.1-1.5-0.3
		c-0.5-0.2-0.9-0.5-1.2-0.9c-0.3-0.4-0.6-0.8-0.8-1.3c-0.2-0.5-0.3-1-0.3-1.6C612.4,303,612.5,302.4,612.7,301.9 M611.8,304.8
		c0.1,0.4,0.3,0.8,0.5,1.2c0.2,0.4,0.4,0.7,0.7,1c0.3,0.3,0.6,0.5,0.9,0.7c0.3,0.2,0.7,0.4,1.1,0.5c0.4,0.1,0.8,0.2,1.2,0.2
		c0.4,0,0.8-0.1,1.2-0.2c0.4-0.1,0.7-0.3,1.1-0.5c0.3-0.2,0.6-0.5,0.9-0.7c0.3-0.3,0.5-0.6,0.7-1c0.2-0.4,0.3-0.7,0.5-1.2
		c0.1-0.4,0.2-0.8,0.2-1.3c0-0.5-0.1-0.9-0.2-1.3c-0.1-0.4-0.3-0.8-0.5-1.2c-0.2-0.4-0.4-0.7-0.7-1c-0.3-0.3-0.6-0.5-0.9-0.7
		c-0.3-0.2-0.7-0.4-1.1-0.5c-0.4-0.1-0.8-0.2-1.2-0.2c-0.4,0-0.8,0.1-1.2,0.2c-0.4,0.1-0.7,0.3-1.1,0.5c-0.3,0.2-0.6,0.5-0.9,0.7
		c-0.3,0.3-0.5,0.6-0.7,1c-0.2,0.4-0.3,0.7-0.5,1.2c-0.1,0.4-0.2,0.8-0.2,1.3C611.6,304,611.7,304.4,611.8,304.8"/>
</g>
</svg>
